<svg xmlns="http://www.w3.org/2000/svg" xmlns:xlink="http://www.w3.org/1999/xlink" width="114" viewBox="0 0 114 34.5" height="34.5" version="1.0"><defs><clipPath id="a"><path d="M 0.8125 0 L 109.441406 0 L 109.441406 34.007812 L 0.8125 34.007812 Z M 0.8125 0"/></clipPath><clipPath id="b"><path d="M 10 1 L 40 1 L 40 33 L 10 33 Z M 10 1"/></clipPath><clipPath id="c"><path d="M 39.386719 16.175781 L 39.386719 15.929688 C 39.386719 7.742188 32.511719 1.164062 24.226562 1.667969 C 16.679688 2.128906 10.851562 8.511719 10.851562 16.082031 L 10.851562 16.175781 C 10.851562 17.050781 11.5625 17.761719 12.4375 17.761719 C 13.3125 17.761719 14.019531 18.472656 14.019531 19.347656 L 14.019531 23.140625 C 14.019531 24.015625 14.730469 24.726562 15.605469 24.726562 C 16.480469 24.726562 17.1875 24.015625 17.1875 23.140625 L 17.1875 19.347656 C 17.1875 18.46875 17.898438 17.761719 18.773438 17.761719 C 19.648438 17.761719 20.355469 18.472656 20.355469 19.347656 L 20.355469 28.792969 C 20.355469 29.667969 21.066406 30.378906 21.9375 30.378906 C 22.816406 30.378906 23.523438 29.667969 23.523438 28.792969 L 23.523438 19.347656 C 23.523438 18.46875 24.234375 17.761719 25.105469 17.761719 C 25.984375 17.761719 26.691406 18.472656 26.691406 19.347656 L 26.691406 30.683594 C 26.691406 31.5625 27.402344 32.269531 28.273438 32.269531 C 29.152344 32.269531 29.859375 31.558594 29.859375 30.683594 L 29.859375 19.347656 C 29.859375 18.46875 30.570312 17.761719 31.441406 17.761719 C 32.316406 17.761719 33.027344 18.472656 33.027344 19.347656 L 33.027344 23.839844 C 33.027344 24.714844 33.738281 25.425781 34.609375 25.425781 C 35.484375 25.425781 36.195312 24.714844 36.195312 23.839844 L 36.195312 19.347656 C 36.195312 18.46875 36.90625 17.761719 37.777344 17.761719 C 38.675781 17.761719 39.386719 17.050781 39.386719 16.175781 Z M 39.386719 16.175781"/></clipPath><clipPath id="e"><path d="M 10 1 L 40 1 L 40 27 L 10 27 Z M 10 1"/></clipPath><clipPath id="f"><path d="M 39.386719 16.175781 L 39.386719 15.929688 C 39.386719 7.742188 32.511719 1.164062 24.226562 1.667969 C 16.679688 2.128906 10.851562 8.511719 10.851562 16.082031 L 10.851562 16.175781 C 10.851562 17.050781 11.5625 17.761719 12.4375 17.761719 C 13.3125 17.761719 14.019531 18.472656 14.019531 19.347656 L 14.019531 20.453125 C 14.019531 21.328125 14.730469 22.039062 15.605469 22.039062 C 16.480469 22.039062 17.1875 21.324219 17.1875 20.453125 L 17.1875 19.347656 C 17.1875 18.46875 17.898438 17.761719 18.773438 17.761719 C 19.648438 17.761719 20.355469 18.472656 20.355469 19.347656 L 20.355469 24.761719 C 20.355469 25.636719 21.066406 26.347656 21.9375 26.347656 C 22.816406 26.347656 23.523438 25.632812 23.523438 24.761719 L 23.523438 19.347656 C 23.523438 18.46875 24.234375 17.761719 25.105469 17.761719 C 25.984375 17.761719 26.691406 18.472656 26.691406 19.347656 L 26.691406 22.621094 C 26.691406 23.496094 27.402344 24.207031 28.273438 24.207031 C 29.152344 24.207031 29.859375 23.492188 29.859375 22.621094 L 29.859375 19.347656 C 29.859375 18.46875 30.570312 17.761719 31.441406 17.761719 C 32.316406 17.761719 33.027344 18.472656 33.027344 19.347656 L 33.027344 21.152344 C 33.027344 22.027344 33.738281 22.738281 34.609375 22.738281 C 35.484375 22.738281 36.195312 22.023438 36.195312 21.152344 L 36.195312 19.347656 C 36.195312 18.46875 36.90625 17.761719 37.777344 17.761719 C 38.675781 17.761719 39.386719 17.050781 39.386719 16.175781 Z M 39.386719 16.175781"/></clipPath><radialGradient gradientTransform="matrix(0 -.70423 1.29577 0 25.12 26.346)" xmlns:xlink="http://www.w3.org/1999/xlink" gradientUnits="userSpaceOnUse" xlink:type="simple" r="35.082" xlink:actuate="onLoad" cx="0" id="g" cy="0" xlink:show="other" fx="0" fy="0"><stop stop-color="#FF66BE" offset="0"/><stop stop-color="#FF66BE" offset=".25"/><stop stop-color="#FF66BE" offset=".344"/><stop stop-color="#FF66BE" offset=".426"/><stop stop-color="#FF65BE" offset=".434"/><stop stop-color="#FF64BD" offset=".438"/><stop stop-color="#FF63BD" offset=".441"/><stop stop-color="#FF63BD" offset=".445"/><stop stop-color="#FF62BD" offset=".449"/><stop stop-color="#FF61BD" offset=".453"/><stop stop-color="#FF60BC" offset=".457"/><stop stop-color="#FF60BC" offset=".461"/><stop stop-color="#FF5FBC" offset=".465"/><stop stop-color="#FF5EBC" offset=".469"/><stop stop-color="#FF5EBC" offset=".473"/><stop stop-color="#FF5DBC" offset=".477"/><stop stop-color="#FF5CBB" offset=".48"/><stop stop-color="#FF5BBB" offset=".484"/><stop stop-color="#FF5BBB" offset=".488"/><stop stop-color="#FF5ABB" offset=".492"/><stop stop-color="#FF59BB" offset=".496"/><stop stop-color="#FF58BA" offset=".5"/><stop stop-color="#FF58BA" offset=".504"/><stop stop-color="#FF57BA" offset=".508"/><stop stop-color="#FF56BA" offset=".512"/><stop stop-color="#FF56BA" offset=".516"/><stop stop-color="#FF55B9" offset=".52"/><stop stop-color="#FF54B9" offset=".523"/><stop stop-color="#FF53B9" offset=".527"/><stop stop-color="#FF53B9" offset=".531"/><stop stop-color="#FF52B9" offset=".535"/><stop stop-color="#FF51B8" offset=".539"/><stop stop-color="#FF51B8" offset=".543"/><stop stop-color="#FF50B8" offset=".547"/><stop stop-color="#FF4FB8" offset=".551"/><stop stop-color="#FF4EB8" offset=".555"/><stop stop-color="#FF4EB8" offset=".559"/><stop stop-color="#FF4DB7" offset=".563"/><stop stop-color="#FF4CB7" offset=".566"/><stop stop-color="#FF4BB7" offset=".57"/><stop stop-color="#FF4BB7" offset=".574"/><stop stop-color="#FF4AB7" offset=".578"/><stop stop-color="#FF49B6" offset=".582"/><stop stop-color="#FF49B6" offset=".586"/><stop stop-color="#FF48B6" offset=".59"/><stop stop-color="#FF47B6" offset=".594"/><stop stop-color="#FF46B6" offset=".598"/><stop stop-color="#FF46B5" offset=".602"/><stop stop-color="#FF45B5" offset=".605"/><stop stop-color="#FF44B5" offset=".609"/><stop stop-color="#FF43B5" offset=".613"/><stop stop-color="#FF43B5" offset=".617"/><stop stop-color="#FF42B4" offset=".621"/><stop stop-color="#FF41B4" offset=".625"/><stop stop-color="#FF41B4" offset=".629"/><stop stop-color="#FF40B4" offset=".633"/><stop stop-color="#FF3FB4" offset=".637"/><stop stop-color="#FF3EB3" offset=".641"/><stop stop-color="#FF3EB3" offset=".645"/><stop stop-color="#FF3DB3" offset=".648"/><stop stop-color="#FF3CB3" offset=".652"/><stop stop-color="#FF3BB3" offset=".656"/><stop stop-color="#FF3BB3" offset=".66"/><stop stop-color="#FF3AB2" offset=".664"/><stop stop-color="#FF39B2" offset=".668"/><stop stop-color="#FF39B2" offset=".672"/><stop stop-color="#FF38B2" offset=".676"/><stop stop-color="#FF37B2" offset=".68"/><stop stop-color="#FF36B1" offset=".684"/><stop stop-color="#FF36B1" offset=".688"/><stop stop-color="#FF35B1" offset=".691"/><stop stop-color="#FF34B1" offset=".695"/><stop stop-color="#FF34B1" offset=".699"/><stop stop-color="#FF33B0" offset=".703"/><stop stop-color="#FF32B0" offset=".707"/><stop stop-color="#FF31B0" offset=".711"/><stop stop-color="#FF31B0" offset=".715"/><stop stop-color="#FF30B0" offset=".719"/><stop stop-color="#FF2FAF" offset=".723"/><stop stop-color="#FF2EAF" offset=".727"/><stop stop-color="#FF2EAF" offset=".73"/><stop stop-color="#FF2DAF" offset=".734"/><stop stop-color="#FF2CAF" offset=".738"/><stop stop-color="#FF2CAE" offset=".742"/><stop stop-color="#FF2BAE" offset=".746"/><stop stop-color="#FF2AAE" offset=".75"/><stop stop-color="#FF29AE" offset=".754"/><stop stop-color="#FF29AE" offset=".758"/><stop stop-color="#FF28AE" offset=".762"/><stop stop-color="#FF27AD" offset=".766"/><stop stop-color="#FF26AD" offset=".77"/><stop stop-color="#FF26AD" offset=".773"/><stop stop-color="#FF25AD" offset=".777"/><stop stop-color="#FF24AD" offset=".781"/><stop stop-color="#FF24AC" offset=".785"/><stop stop-color="#FF23AC" offset=".789"/><stop stop-color="#FF22AC" offset=".793"/><stop stop-color="#FF21AC" offset=".797"/><stop stop-color="#FF21AC" offset=".801"/><stop stop-color="#FF20AB" offset=".805"/><stop stop-color="#FF1FAB" offset=".809"/><stop stop-color="#FF1FAB" offset=".813"/><stop stop-color="#FF1EAB" offset=".816"/><stop stop-color="#FF1DAB" offset=".82"/><stop stop-color="#FF1CAA" offset=".824"/><stop stop-color="#FF1CAA" offset=".828"/><stop stop-color="#FF1BAA" offset=".832"/><stop stop-color="#FF1AAA" offset=".836"/><stop stop-color="#FF19AA" offset=".84"/><stop stop-color="#FF19A9" offset=".844"/><stop stop-color="#FF18A9" offset=".848"/><stop stop-color="#FF17A9" offset=".852"/><stop stop-color="#FF17A9" offset=".855"/><stop stop-color="#FF16A9" offset=".859"/><stop stop-color="#FF15A9" offset=".863"/><stop stop-color="#FF14A8" offset=".867"/><stop stop-color="#FF14A8" offset=".871"/><stop stop-color="#FF13A8" offset=".875"/><stop stop-color="#FF12A8" offset=".879"/><stop stop-color="#FF11A8" offset=".883"/><stop stop-color="#FF11A7" offset=".887"/><stop stop-color="#FF10A7" offset=".891"/><stop stop-color="#FF0FA7" offset=".895"/><stop stop-color="#FF0FA7" offset=".898"/><stop stop-color="#FF0EA7" offset=".902"/><stop stop-color="#FF0DA6" offset=".906"/><stop stop-color="#FF0CA6" offset=".91"/><stop stop-color="#FF0CA6" offset=".914"/><stop stop-color="#FF0BA6" offset=".918"/><stop stop-color="#FF0AA6" offset=".922"/><stop stop-color="#FF0AA5" offset=".926"/><stop stop-color="#FF09A5" offset=".93"/><stop stop-color="#FF08A5" offset=".934"/><stop stop-color="#FF07A5" offset=".938"/><stop stop-color="#FF07A5" offset=".941"/><stop stop-color="#FF06A4" offset=".945"/><stop stop-color="#FF05A4" offset=".949"/><stop stop-color="#FF04A4" offset=".953"/><stop stop-color="#FF04A4" offset=".957"/><stop stop-color="#FF03A4" offset=".961"/><stop stop-color="#FF02A4" offset=".965"/><stop stop-color="#FF02A3" offset=".969"/><stop stop-color="#FF01A3" offset=".973"/><stop stop-color="#FF00A3" offset=".977"/><stop stop-color="#FF00A3" offset="1"/></radialGradient><linearGradient x1="86.889" gradientTransform="matrix(.33985 0 0 .34034 -4.41 -13.675)" xmlns:xlink="http://www.w3.org/1999/xlink" y1="135" x2="86.889" gradientUnits="userSpaceOnUse" y2="43.599" xlink:type="simple" xlink:actuate="onLoad" id="d" xlink:show="other"><stop stop-color="#8C46F9" offset="0"/><stop stop-color="#8C47F9" offset=".004"/><stop stop-color="#8D47F9" offset=".008"/><stop stop-color="#8E47F9" offset=".012"/><stop stop-color="#8F47F8" offset=".016"/><stop stop-color="#9047F8" offset=".02"/><stop stop-color="#9147F8" offset=".023"/><stop stop-color="#9248F7" offset=".027"/><stop stop-color="#9348F7" offset=".031"/><stop stop-color="#9448F7" offset=".035"/><stop stop-color="#9548F7" offset=".039"/><stop stop-color="#9648F6" offset=".043"/><stop stop-color="#9748F6" offset=".047"/><stop stop-color="#9848F6" offset=".051"/><stop stop-color="#9949F5" offset=".055"/><stop stop-color="#9A49F5" offset=".059"/><stop stop-color="#9A49F5" offset=".063"/><stop stop-color="#9B49F5" offset=".066"/><stop stop-color="#9C49F4" offset=".07"/><stop stop-color="#9D49F4" offset=".074"/><stop stop-color="#9E4AF4" offset=".078"/><stop stop-color="#9F4AF3" offset=".082"/><stop stop-color="#A04AF3" offset=".086"/><stop stop-color="#A14AF3" offset=".09"/><stop stop-color="#A24AF3" offset=".094"/><stop stop-color="#A34AF2" offset=".098"/><stop stop-color="#A44BF2" offset=".102"/><stop stop-color="#A54BF2" offset=".105"/><stop stop-color="#A64BF1" offset=".109"/><stop stop-color="#A74BF1" offset=".113"/><stop stop-color="#A84BF1" offset=".117"/><stop stop-color="#A84BF1" offset=".121"/><stop stop-color="#A94BF0" offset=".125"/><stop stop-color="#AA4CF0" offset=".129"/><stop stop-color="#AB4CF0" offset=".133"/><stop stop-color="#AC4CEF" offset=".137"/><stop stop-color="#AD4CEF" offset=".141"/><stop stop-color="#AE4CEF" offset=".145"/><stop stop-color="#AF4CEF" offset=".148"/><stop stop-color="#B04DEE" offset=".152"/><stop stop-color="#B14DEE" offset=".156"/><stop stop-color="#B24DEE" offset=".16"/><stop stop-color="#B34DED" offset=".164"/><stop stop-color="#B44DED" offset=".168"/><stop stop-color="#B54DED" offset=".172"/><stop stop-color="#B64EED" offset=".176"/><stop stop-color="#B74EEC" offset=".18"/><stop stop-color="#B74EEC" offset=".184"/><stop stop-color="#B84EEC" offset=".188"/><stop stop-color="#B94EEB" offset=".191"/><stop stop-color="#BA4EEB" offset=".195"/><stop stop-color="#BB4EEB" offset=".199"/><stop stop-color="#BC4FEB" offset=".203"/><stop stop-color="#BD4FEA" offset=".207"/><stop stop-color="#BE4FEA" offset=".211"/><stop stop-color="#BF4FEA" offset=".215"/><stop stop-color="#C04FE9" offset=".219"/><stop stop-color="#C14FE9" offset=".223"/><stop stop-color="#C250E9" offset=".227"/><stop stop-color="#C350E9" offset=".23"/><stop stop-color="#C450E8" offset=".234"/><stop stop-color="#C550E8" offset=".238"/><stop stop-color="#C550E8" offset=".242"/><stop stop-color="#C650E7" offset=".246"/><stop stop-color="#C751E7" offset=".25"/><stop stop-color="#C851E7" offset=".254"/><stop stop-color="#C951E7" offset=".258"/><stop stop-color="#CA51E6" offset=".262"/><stop stop-color="#CB51E6" offset=".266"/><stop stop-color="#CC51E6" offset=".27"/><stop stop-color="#CD52E5" offset=".273"/><stop stop-color="#CE52E5" offset=".277"/><stop stop-color="#CF52E5" offset=".281"/><stop stop-color="#D052E5" offset=".285"/><stop stop-color="#D152E4" offset=".289"/><stop stop-color="#D252E4" offset=".293"/><stop stop-color="#D352E4" offset=".297"/><stop stop-color="#D453E3" offset=".301"/><stop stop-color="#D453E3" offset=".305"/><stop stop-color="#D553E3" offset=".313"/><stop stop-color="#D553E3" offset=".375"/><stop stop-color="#D553E3" offset=".5"/><stop stop-color="#D553E3" offset="1"/></linearGradient></defs><g clip-path="url(#a)"><path fill="#FFF" d="M -4.410156 -13.675781 L 109.441406 -13.675781 L 109.441406 47.585938 L -4.410156 47.585938 Z M -4.410156 -13.675781"/></g><g clip-path="url(#b)"><g clip-path="url(#c)"><path fill="url(#d)" d="M 10.851562 1.164062 L 10.851562 32.269531 L 39.386719 32.269531 L 39.386719 1.164062 Z M 10.851562 1.164062"/></g></g><g clip-path="url(#e)"><g clip-path="url(#f)"><path fill="url(#g)" d="M 10.851562 26.347656 L 39.386719 26.347656 L 39.386719 1.164062 L 10.851562 1.164062 Z M 10.851562 26.347656"/></g></g><path fill="#1E0036" d="M 20.59375 10.960938 C 21.46875 10.960938 22.179688 10.25 22.179688 9.371094 C 22.179688 8.496094 21.46875 7.78125 20.59375 7.78125 C 19.71875 7.78125 19.007812 8.496094 19.007812 9.371094 C 19.007812 10.25 19.71875 10.960938 20.59375 10.960938 Z M 20.59375 10.960938"/><path fill="#1E0036" d="M 29.8125 10.960938 C 30.6875 10.960938 31.398438 10.25 31.398438 9.371094 C 31.398438 8.496094 30.6875 7.78125 29.8125 7.78125 C 28.933594 7.78125 28.222656 8.496094 28.222656 9.371094 C 28.222656 10.25 28.933594 10.960938 29.8125 10.960938 Z M 29.8125 10.960938"/><path fill="#1E0036" d="M 25.203125 13.957031 C 24.363281 13.957031 23.566406 13.601562 23.070312 13.007812 C 22.960938 12.882812 22.980469 12.6875 23.105469 12.582031 C 23.234375 12.472656 23.425781 12.492188 23.53125 12.617188 C 23.914062 13.074219 24.539062 13.347656 25.203125 13.347656 C 25.867188 13.347656 26.492188 13.074219 26.875 12.617188 C 26.984375 12.492188 27.175781 12.472656 27.300781 12.582031 C 27.429688 12.6875 27.445312 12.882812 27.339844 13.007812 C 26.839844 13.601562 26.042969 13.957031 25.203125 13.957031 Z M 25.203125 13.957031"/><path fill="#FF00A3" d="M 50.660156 19.847656 C 53.167969 19.847656 54.660156 18.433594 54.660156 15.9375 L 54.660156 9.050781 C 54.660156 8.238281 54.207031 7.765625 53.433594 7.765625 C 52.664062 7.765625 52.210938 8.238281 52.210938 9.050781 L 52.210938 15.921875 C 52.210938 17.101562 51.660156 17.734375 50.636719 17.734375 C 49.859375 17.734375 49.3125 17.296875 49.09375 16.507812 C 48.902344 15.839844 48.542969 15.546875 47.925781 15.546875 C 47.238281 15.546875 46.792969 15.996094 46.792969 16.703125 C 46.792969 17.058594 46.855469 17.351562 46.996094 17.691406 C 47.546875 19.042969 48.902344 19.847656 50.660156 19.847656 Z M 50.660156 19.847656"/><path fill="#FF00A3" d="M 58.09375 19.652344 L 63.660156 19.652344 C 64.332031 19.652344 64.769531 19.269531 64.769531 18.636719 C 64.769531 18 64.324219 17.621094 63.660156 17.621094 L 59.320312 17.621094 L 59.320312 14.664062 L 63.449219 14.664062 C 64.066406 14.664062 64.472656 14.304688 64.472656 13.71875 C 64.472656 13.136719 64.058594 12.777344 63.449219 12.777344 L 59.320312 12.777344 L 59.320312 9.960938 L 63.660156 9.960938 C 64.324219 9.960938 64.769531 9.578125 64.769531 8.945312 C 64.769531 8.308594 64.332031 7.929688 63.660156 7.929688 L 58.09375 7.929688 C 57.324219 7.929688 56.871094 8.398438 56.871094 9.203125 L 56.871094 18.367188 C 56.871094 19.179688 57.324219 19.652344 58.09375 19.652344 Z M 58.09375 19.652344"/><path fill="#FF00A3" d="M 67.785156 19.652344 L 73.164062 19.652344 C 73.835938 19.652344 74.273438 19.269531 74.273438 18.636719 C 74.273438 18 73.828125 17.621094 73.164062 17.621094 L 69.007812 17.621094 L 69.007812 9.050781 C 69.007812 8.238281 68.554688 7.765625 67.785156 7.765625 C 67.015625 7.765625 66.558594 8.238281 66.558594 9.050781 L 66.558594 18.367188 C 66.558594 19.179688 67.015625 19.652344 67.785156 19.652344 Z M 67.785156 19.652344"/><path fill="#FF00A3" d="M 76.972656 19.652344 L 82.347656 19.652344 C 83.023438 19.652344 83.460938 19.269531 83.460938 18.636719 C 83.460938 18 83.015625 17.621094 82.347656 17.621094 L 78.195312 17.621094 L 78.195312 9.050781 C 78.195312 8.238281 77.742188 7.765625 76.972656 7.765625 C 76.199219 7.765625 75.746094 8.238281 75.746094 9.050781 L 75.746094 18.367188 C 75.746094 19.179688 76.199219 19.652344 76.972656 19.652344 Z M 76.972656 19.652344"/><path fill="#FF00A3" d="M 87.617188 22.363281 C 88.386719 22.363281 88.84375 21.894531 88.84375 21.089844 L 88.84375 15.273438 L 92.410156 9.738281 C 92.589844 9.457031 92.671875 9.1875 92.671875 8.902344 C 92.671875 8.253906 92.152344 7.765625 91.460938 7.765625 C 90.976562 7.765625 90.660156 7.984375 90.351562 8.523438 L 87.667969 12.933594 L 87.609375 12.933594 L 84.933594 8.523438 C 84.609375 7.960938 84.324219 7.765625 83.796875 7.765625 C 83.089844 7.765625 82.574219 8.253906 82.574219 8.917969 C 82.574219 9.195312 82.644531 9.472656 82.824219 9.75 L 86.394531 15.273438 L 86.394531 21.089844 C 86.394531 21.894531 86.847656 22.363281 87.617188 22.363281 Z M 87.617188 22.363281"/><path fill="#FF00A3" d="M 59.726562 26.898438 C 59.980469 26.898438 60.121094 26.777344 60.195312 26.496094 L 61.03125 23.582031 L 61.0625 23.582031 L 61.894531 26.496094 C 61.972656 26.78125 62.109375 26.898438 62.367188 26.898438 C 62.613281 26.898438 62.753906 26.773438 62.828125 26.496094 L 63.828125 22.902344 C 63.855469 22.796875 63.867188 22.714844 63.867188 22.644531 C 63.867188 22.421875 63.714844 22.28125 63.472656 22.28125 C 63.265625 22.28125 63.132812 22.394531 63.082031 22.621094 L 62.332031 25.75 L 62.304688 25.75 L 61.480469 22.652344 C 61.410156 22.402344 61.277344 22.28125 61.046875 22.28125 C 60.8125 22.28125 60.679688 22.394531 60.613281 22.664062 L 59.785156 25.75 L 59.761719 25.75 L 59.007812 22.621094 C 58.957031 22.398438 58.828125 22.28125 58.617188 22.28125 C 58.378906 22.28125 58.222656 22.421875 58.222656 22.644531 C 58.222656 22.714844 58.234375 22.800781 58.261719 22.902344 L 59.261719 26.492188 C 59.339844 26.773438 59.476562 26.898438 59.726562 26.898438 Z M 59.726562 26.898438"/><path fill="#FF00A3" d="M 64.320312 26.898438 C 64.527344 26.898438 64.648438 26.792969 64.722656 26.550781 L 65.019531 25.695312 L 66.699219 25.695312 L 66.996094 26.554688 C 67.070312 26.796875 67.191406 26.898438 67.410156 26.898438 C 67.644531 26.898438 67.8125 26.742188 67.8125 26.523438 C 67.8125 26.453125 67.796875 26.382812 67.757812 26.277344 L 66.449219 22.714844 C 66.335938 22.414062 66.15625 22.28125 65.859375 22.28125 C 65.566406 22.28125 65.382812 22.417969 65.273438 22.71875 L 63.96875 26.277344 C 63.929688 26.375 63.914062 26.460938 63.914062 26.523438 C 63.914062 26.753906 64.074219 26.898438 64.320312 26.898438 Z M 65.207031 25.058594 L 65.84375 23.132812 L 65.863281 23.132812 L 66.503906 25.058594 Z M 65.207031 25.058594"/><path fill="#FF00A3" d="M 68.863281 26.84375 L 70.992188 26.84375 C 71.214844 26.84375 71.359375 26.710938 71.359375 26.503906 C 71.359375 26.292969 71.210938 26.164062 70.992188 26.164062 L 69.265625 26.164062 L 69.265625 22.699219 C 69.265625 22.433594 69.117188 22.28125 68.863281 22.28125 C 68.613281 22.28125 68.460938 22.433594 68.460938 22.699219 L 68.460938 26.425781 C 68.460938 26.6875 68.613281 26.84375 68.863281 26.84375 Z M 68.863281 26.84375"/><path fill="#FF00A3" d="M 72.355469 26.84375 L 74.480469 26.84375 C 74.703125 26.84375 74.847656 26.710938 74.847656 26.503906 C 74.847656 26.292969 74.699219 26.164062 74.480469 26.164062 L 72.757812 26.164062 L 72.757812 22.699219 C 72.757812 22.433594 72.605469 22.28125 72.355469 22.28125 C 72.105469 22.28125 71.949219 22.433594 71.949219 22.699219 L 71.949219 26.425781 C 71.949219 26.6875 72.105469 26.84375 72.355469 26.84375 Z M 72.355469 26.84375"/><path fill="#FF00A3" d="M 75.84375 26.84375 L 78.035156 26.84375 C 78.257812 26.84375 78.40625 26.710938 78.40625 26.503906 C 78.40625 26.292969 78.257812 26.164062 78.035156 26.164062 L 76.246094 26.164062 L 76.246094 24.875 L 77.941406 24.875 C 78.152344 24.875 78.289062 24.75 78.289062 24.554688 C 78.289062 24.355469 78.148438 24.234375 77.941406 24.234375 L 76.246094 24.234375 L 76.246094 23.015625 L 78.035156 23.015625 C 78.257812 23.015625 78.40625 22.886719 78.40625 22.675781 C 78.40625 22.464844 78.257812 22.335938 78.035156 22.335938 L 75.84375 22.335938 C 75.59375 22.335938 75.441406 22.492188 75.441406 22.753906 L 75.441406 26.425781 C 75.441406 26.6875 75.59375 26.84375 75.84375 26.84375 Z M 75.84375 26.84375"/><path fill="#FF00A3" d="M 80.617188 26.898438 C 80.871094 26.898438 81.019531 26.742188 81.019531 26.476562 L 81.019531 23.015625 L 82.050781 23.015625 C 82.269531 23.015625 82.417969 22.886719 82.417969 22.675781 C 82.417969 22.464844 82.273438 22.335938 82.050781 22.335938 L 79.1875 22.335938 C 78.96875 22.335938 78.820312 22.464844 78.820312 22.675781 C 78.820312 22.886719 78.972656 23.015625 79.1875 23.015625 L 80.21875 23.015625 L 80.21875 26.476562 C 80.21875 26.742188 80.367188 26.898438 80.617188 26.898438 Z M 80.617188 26.898438"/></svg>