<?xml version="1.0" standalone="no"?>
<!DOCTYPE svg PUBLIC "-//W3C//DTD SVG 20010904//EN"
 "http://www.w3.org/TR/2001/REC-SVG-20010904/DTD/svg10.dtd">
<svg version="1.0" xmlns="http://www.w3.org/2000/svg"
 width="361.000000pt" height="361.000000pt" viewBox="0 0 361.000000 361.000000"
 preserveAspectRatio="xMidYMid meet">
<metadata>
Created by potrace 1.14, written by Peter Selinger 2001-2017
</metadata>
<g transform="translate(0.000000,361.000000) scale(0.100000,-0.100000)"
fill="#000000" stroke="none">
<path d="M1727 3604 c-1 -1 -38 -4 -82 -8 -254 -18 -546 -123 -770 -275 -162
-110 -313 -256 -421 -406 -205 -284 -314 -605 -328 -962 -6 -153 58 -233 200
-246 69 -7 118 -40 149 -101 25 -49 25 -53 25 -308 0 -286 3 -305 62 -358 75
-69 199 -59 266 20 38 44 41 73 42 341 1 244 3 265 22 303 11 22 26 45 32 52
26 25 97 54 133 54 77 -1 156 -59 179 -130 4 -14 8 -293 9 -620 1 -543 2 -598
18 -627 74 -139 260 -140 333 -3 17 33 18 71 20 635 1 584 1 601 21 640 25 49
47 70 96 90 98 41 219 -14 247 -114 6 -22 10 -298 10 -732 0 -749 -1 -738 52
-785 63 -58 122 -71 195 -47 44 15 97 66 115 112 7 17 11 269 12 736 2 798 -3
751 77 808 85 62 201 39 263 -51 l30 -42 1 -313 c1 -352 3 -361 78 -421 35
-28 46 -31 105 -31 86 1 132 28 167 100 24 50 24 52 24 346 0 249 2 302 16
336 27 68 92 110 176 114 113 6 181 83 182 208 3 258 -57 512 -179 756 -81
164 -171 290 -299 420 -121 122 -142 140 -262 222 -165 111 -349 193 -538 239
-58 14 -120 27 -138 29 -17 2 -56 6 -84 10 -48 6 -251 14 -256 9z"/>
</g>
</svg>
